<?xml version="1.0" encoding="UTF-8"?>
<!DOCTYPE svg PUBLIC "-//W3C//DTD SVG 1.1//EN" "http://www.w3.org/Graphics/SVG/1.1/DTD/svg11.dtd">
<!-- Creator: CorelDRAW 2019 (64-Bit) -->
<svg xmlns="http://www.w3.org/2000/svg" xml:space="preserve" width="488px" height="335px" version="1.1" style="shape-rendering:geometricPrecision; text-rendering:geometricPrecision; image-rendering:optimizeQuality; fill-rule:evenodd; clip-rule:evenodd"
viewBox="0 0 488 335"
 xmlns:xlink="http://www.w3.org/1999/xlink">
 <defs>
  <style type="text/css">
   <![CDATA[
    .str0 {stroke:#003f7b;stroke-width:0.26;stroke-miterlimit:22.9256}
    .fil1 {fill:none}
    .fil0 {fill:#003f7b}
   ]]>
  </style>
 </defs>
 <g id="Слой_x0020_1">
  <metadata id="CorelCorpID_0Corel-Layer"/>
  <g id="_2127647078448">
   <path class="fil0" d="M79.21 177.65l75.42 -0.63 12.74 71.4c41.11,-71.16 41.11,-71.16 41.11,-71.16 35.23,-0.29 78.49,11.85 79.33,-36.78l136.06 0c0,114.92 -69.13,180.72 -177.65,193.76l-44.95 0 -13.22 -50.96 -32.21 50.48 -64.91 0.48 -10.1 -51.45 -25.96 52.41 -54.87 0.15 79.21 -157.7z"/>
   <path class="fil1 str0" d="M79.21 177.65l75.42 -0.63 12.74 71.4c41.11,-71.16 41.11,-71.16 41.11,-71.16 35.23,-0.29 78.49,11.85 79.33,-36.78l136.06 0c0,114.92 -69.13,180.72 -177.65,193.76l-44.95 0 -13.22 -50.96 -32.21 50.48 -64.91 0.48 -10.1 -51.45 -25.96 52.41 -54.87 0.15 79.21 -157.7z"/>
   <path class="fil0" d="M208.19 156.18c0.66,-22.12 8.84,-35.45 32.15,-40.8l184.8 0.42 13.82 -26.57 -179.57 -0.24 -11.42 0.22c-45.22,2.57 -67.61,23.71 -67.61,66.97l27.83 0z"/>
   <path class="fil1 str0" d="M208.19 156.18c0.66,-22.12 8.84,-35.45 32.15,-40.8l184.8 0.42 13.82 -26.57 -179.57 -0.24 -11.42 0.22c-45.22,2.57 -67.61,23.71 -67.61,66.97l27.83 0z"/>
   <path class="fil0" d="M162.97 156.21l-30.82 -0.02 0.37 -24.11c8.54,-63.16 53,-80.25 101.77,-87.33 5.29,-0.77 13.05,-0.22 18.37,-0.7l210.7 0.47 -15.73 28.72 -206.27 -0.35c-41.94,3.77 -76.65,24.45 -78.37,69.23l-0.02 14.09z"/>
   <path class="fil1 str0" d="M162.97 156.21l-30.82 -0.02 0.37 -24.11c8.54,-63.16 53,-80.25 101.77,-87.33 5.29,-0.77 13.05,-0.22 18.37,-0.7l210.7 0.47 -15.73 28.72 -206.27 -0.35c-41.94,3.77 -76.65,24.45 -78.37,69.23l-0.02 14.09z"/>
   <path class="fil0" d="M115.03 156.42l-31.85 0c-4.95,-93.85 57.74,-148.28 156.14,-155.65l248.68 -0.12 -13.82 27.76 -240.87 0.12c-53.05,2.4 -103.94,31.76 -115.63,85.11l-2.05 16.58 -0.72 16.47 0.12 9.73z"/>
   <path class="fil1 str0" d="M115.03 156.42l-31.85 0c-4.95,-93.85 57.74,-148.28 156.14,-155.65l248.68 -0.12 -13.82 27.76 -240.87 0.12c-53.05,2.4 -103.94,31.76 -115.63,85.11l-2.05 16.58 -0.72 16.47 0.12 9.73z"/>
  </g>
 </g>
</svg>
